<?xml version="1.0" encoding="utf-8"?>
<!-- Generator: Adobe Illustrator 23.0.6, SVG Export Plug-In . SVG Version: 6.00 Build 0)  -->
<svg version="1.1" id="Capa_1" xmlns="http://www.w3.org/2000/svg" xmlns:xlink="http://www.w3.org/1999/xlink" x="0px" y="0px"
	 viewBox="0 0 300 300" style="enable-background:new 0 0 300 300;" xml:space="preserve">
<style type="text/css">
	.st0{fill:#F907FB;}
	.st1{fill:#FFFFFF;}
	.st2{fill:#FC02F7;}
	.st3{fill:#09FEFF;}
</style>
<g>
	<polygon class="st0" points="9,109.33 9,87.33 28,115.33 129,65.33 291,146.33 276,152.33 129.5,80.83 23.5,131.83 	"/>
	<g>
		<path class="st1" d="M67.53,105.09l1.85-0.27c0.19,1.01,0.1,1.87-0.27,2.58c-0.36,0.71-0.98,1.28-1.86,1.7
			c-1.09,0.52-2.16,0.58-3.22,0.18c-1.06-0.41-1.9-1.25-2.52-2.54c-0.66-1.36-0.82-2.59-0.48-3.69c0.34-1.09,1.08-1.92,2.23-2.47
			c1-0.48,1.96-0.58,2.87-0.29c0.54,0.17,1.06,0.54,1.57,1.11l-1.45,1.18c-0.3-0.38-0.67-0.62-1.09-0.71
			c-0.43-0.1-0.86-0.04-1.3,0.17c-0.61,0.29-1,0.75-1.16,1.37c-0.17,0.62-0.02,1.42,0.46,2.39c0.5,1.04,1.04,1.68,1.63,1.94
			s1.18,0.25,1.77-0.04c0.44-0.21,0.75-0.54,0.93-0.97C67.67,106.3,67.68,105.76,67.53,105.09z"/>
		<path class="st1" d="M69.72,102.76c-0.4-0.83-0.62-1.6-0.64-2.28c-0.01-0.51,0.06-1,0.22-1.49c0.16-0.49,0.4-0.9,0.7-1.25
			c0.41-0.46,0.94-0.85,1.61-1.18c1.21-0.58,2.35-0.67,3.44-0.27c1.09,0.4,1.95,1.27,2.59,2.6c0.64,1.32,0.78,2.53,0.42,3.63
			c-0.36,1.09-1.14,1.93-2.34,2.51c-1.22,0.59-2.37,0.68-3.44,0.29C71.2,104.91,70.35,104.06,69.72,102.76z M71.4,101.88
			c0.45,0.93,1,1.53,1.66,1.8c0.66,0.27,1.32,0.25,1.98-0.07c0.66-0.32,1.09-0.82,1.28-1.5c0.19-0.68,0.06-1.49-0.4-2.44
			c-0.45-0.94-1-1.54-1.63-1.8c-0.63-0.26-1.29-0.23-1.97,0.1s-1.12,0.83-1.31,1.5S70.94,100.94,71.4,101.88z"/>
		<path class="st1" d="M80.96,102.33l-3.92-8.13l1.66-0.8l3.25,6.75l4.11-1.98l0.67,1.38L80.96,102.33z"/>
		<path class="st1" d="M85.62,95.09c-0.4-0.83-0.62-1.6-0.64-2.28c-0.01-0.51,0.06-1,0.22-1.49c0.16-0.49,0.4-0.9,0.7-1.25
			c0.41-0.46,0.94-0.85,1.61-1.18c1.21-0.58,2.35-0.67,3.44-0.27c1.09,0.4,1.95,1.27,2.59,2.6c0.64,1.32,0.78,2.53,0.42,3.63
			c-0.36,1.09-1.14,1.93-2.34,2.51c-1.22,0.59-2.37,0.68-3.44,0.29S86.25,96.39,85.62,95.09z M87.29,94.21
			c0.45,0.93,1,1.53,1.66,1.8c0.66,0.27,1.32,0.25,1.98-0.07c0.66-0.32,1.09-0.82,1.28-1.5c0.19-0.68,0.06-1.5-0.4-2.45
			c-0.45-0.94-1-1.54-1.63-1.8c-0.63-0.26-1.29-0.23-1.97,0.1s-1.12,0.83-1.31,1.5C86.71,92.46,86.84,93.27,87.29,94.21z"/>
		<path class="st1" d="M96.83,94.67l-3.95-8.2l1.61-0.78l5.99,3.85l-2.64-5.47l1.54-0.74l3.95,8.2l-1.66,0.8l-5.88-3.75l2.58,5.34
			L96.83,94.67z"/>
		<path class="st1" d="M102.79,86.8c-0.4-0.83-0.62-1.6-0.64-2.28c-0.01-0.51,0.06-1,0.22-1.49c0.16-0.49,0.4-0.9,0.7-1.25
			c0.41-0.46,0.94-0.85,1.61-1.18c1.21-0.58,2.35-0.67,3.44-0.27c1.08,0.4,1.95,1.27,2.59,2.6c0.64,1.32,0.78,2.53,0.42,3.63
			c-0.36,1.09-1.14,1.93-2.34,2.51c-1.22,0.59-2.37,0.68-3.44,0.29C104.27,88.96,103.42,88.11,102.79,86.8z M104.47,85.93
			c0.45,0.93,1,1.53,1.66,1.8c0.66,0.27,1.32,0.25,1.98-0.07c0.66-0.32,1.09-0.82,1.28-1.5c0.19-0.68,0.06-1.5-0.4-2.45
			c-0.45-0.94-1-1.54-1.63-1.8c-0.63-0.26-1.29-0.23-1.97,0.1c-0.68,0.33-1.12,0.83-1.31,1.5S104.01,84.98,104.47,85.93z"/>
		<path class="st1" d="M112.28,83.93l1.53-0.93c0.36,0.49,0.75,0.8,1.16,0.91c0.42,0.11,0.88,0.04,1.38-0.2
			c0.53-0.26,0.88-0.56,1.04-0.92c0.16-0.36,0.17-0.69,0.02-0.99c-0.09-0.19-0.23-0.33-0.41-0.41c-0.18-0.08-0.43-0.1-0.77-0.07
			c-0.23,0.03-0.73,0.12-1.5,0.28c-0.99,0.21-1.75,0.24-2.26,0.09c-0.72-0.21-1.24-0.64-1.55-1.28c-0.2-0.42-0.27-0.87-0.21-1.34
			c0.06-0.48,0.27-0.92,0.62-1.32c0.35-0.41,0.84-0.76,1.47-1.06c1.03-0.5,1.91-0.64,2.65-0.45c0.74,0.2,1.3,0.67,1.69,1.41
			l-1.62,0.87c-0.27-0.39-0.57-0.62-0.89-0.69s-0.72,0-1.18,0.23c-0.48,0.23-0.81,0.51-0.99,0.84c-0.11,0.21-0.12,0.42-0.02,0.64
			c0.09,0.19,0.25,0.32,0.49,0.38c0.29,0.07,0.89,0.01,1.79-0.19c0.9-0.2,1.59-0.29,2.07-0.27c0.48,0.02,0.92,0.15,1.31,0.4
			c0.39,0.25,0.71,0.63,0.96,1.15c0.23,0.47,0.31,0.97,0.25,1.51c-0.06,0.54-0.28,1.02-0.67,1.45c-0.38,0.43-0.93,0.82-1.64,1.16
			c-1.04,0.5-1.95,0.64-2.73,0.43C113.49,85.33,112.83,84.79,112.28,83.93z"/>
	</g>
	<g>
		<path class="st1" d="M161.01,84.44l1.65,0.82l-2.19,4.42c-0.35,0.7-0.55,1.17-0.61,1.39c-0.09,0.37-0.06,0.72,0.11,1.05
			c0.16,0.33,0.48,0.61,0.94,0.84c0.47,0.23,0.87,0.31,1.2,0.24c0.33-0.07,0.59-0.24,0.78-0.49c0.19-0.25,0.44-0.71,0.76-1.35
			l2.23-4.51l1.65,0.82l-2.12,4.28c-0.48,0.98-0.87,1.65-1.16,2.01s-0.62,0.62-1,0.78c-0.38,0.16-0.81,0.22-1.29,0.19
			c-0.48-0.03-1.05-0.21-1.69-0.53c-0.78-0.39-1.32-0.77-1.64-1.15c-0.31-0.38-0.51-0.77-0.61-1.17s-0.1-0.78-0.01-1.13
			c0.12-0.52,0.41-1.24,0.86-2.15L161.01,84.44z"/>
		<path class="st1" d="M165.23,96.68l4.04-8.15l1.6,0.79l0.64,7.1l2.7-5.44l1.53,0.76l-4.04,8.15l-1.65-0.82l-0.65-6.94l-2.63,5.32
			L165.23,96.68z"/>
		<path class="st1" d="M173.38,100.72l4.04-8.15l1.65,0.82l-4.04,8.15L173.38,100.72z"/>
		<path class="st1" d="M180.63,94.16l3.01,1.49c0.68,0.34,1.17,0.64,1.47,0.92c0.41,0.38,0.69,0.83,0.86,1.36
			c0.16,0.53,0.21,1.1,0.12,1.71c-0.08,0.61-0.31,1.3-0.69,2.06c-0.33,0.67-0.7,1.21-1.11,1.61c-0.5,0.49-1.03,0.83-1.59,1.01
			c-0.42,0.14-0.92,0.16-1.48,0.08c-0.42-0.07-0.93-0.25-1.54-0.55l-3.1-1.54L180.63,94.16z M181.6,96.35l-2.68,5.4l1.23,0.61
			c0.46,0.23,0.8,0.37,1.03,0.42c0.3,0.07,0.58,0.06,0.83-0.01s0.53-0.26,0.82-0.57c0.29-0.31,0.6-0.78,0.91-1.41
			c0.31-0.63,0.5-1.14,0.55-1.53c0.06-0.39,0.03-0.73-0.08-1.02s-0.3-0.54-0.57-0.76c-0.21-0.17-0.64-0.42-1.31-0.75L181.6,96.35z"
			/>
		<path class="st1" d="M186.48,102.2c0.41-0.83,0.88-1.47,1.41-1.91c0.39-0.32,0.83-0.57,1.31-0.74c0.48-0.17,0.96-0.24,1.42-0.21
			c0.61,0.04,1.25,0.22,1.92,0.55c1.2,0.6,1.98,1.44,2.33,2.55c0.35,1.1,0.2,2.32-0.46,3.64c-0.65,1.32-1.52,2.17-2.6,2.56
			c-1.08,0.39-2.23,0.29-3.42-0.31c-1.21-0.6-1.99-1.45-2.34-2.54C185.7,104.69,185.84,103.5,186.48,102.2z M188.21,102.98
			c-0.46,0.92-0.59,1.73-0.4,2.42c0.19,0.69,0.61,1.19,1.27,1.52s1.31,0.36,1.97,0.09c0.66-0.26,1.22-0.87,1.69-1.81
			c0.46-0.94,0.6-1.73,0.42-2.4c-0.18-0.66-0.61-1.16-1.29-1.5c-0.68-0.34-1.34-0.37-1.99-0.12
			C189.23,101.45,188.67,102.04,188.21,102.98z"/>
		<path class="st1" d="M194.58,107.92l1.68,0.64c-0.17,0.59-0.17,1.08,0,1.47c0.17,0.4,0.5,0.72,1,0.97
			c0.53,0.26,0.99,0.35,1.37,0.26c0.38-0.09,0.64-0.29,0.79-0.59c0.1-0.19,0.12-0.39,0.07-0.58c-0.05-0.19-0.19-0.41-0.42-0.65
			c-0.16-0.16-0.54-0.5-1.14-1.01c-0.77-0.66-1.26-1.23-1.46-1.73c-0.28-0.69-0.26-1.37,0.06-2.01c0.21-0.42,0.52-0.75,0.93-0.99
			c0.41-0.25,0.89-0.35,1.43-0.32c0.54,0.03,1.12,0.2,1.75,0.51c1.02,0.51,1.68,1.11,1.98,1.82c0.29,0.71,0.27,1.44-0.08,2.2
			l-1.68-0.74c0.14-0.46,0.14-0.83-0.01-1.13c-0.14-0.3-0.44-0.56-0.91-0.79c-0.48-0.24-0.9-0.32-1.27-0.26
			c-0.24,0.04-0.41,0.17-0.51,0.38c-0.1,0.19-0.1,0.4,0,0.62c0.12,0.28,0.54,0.71,1.24,1.29s1.2,1.08,1.49,1.47
			c0.28,0.39,0.45,0.82,0.49,1.28s-0.06,0.94-0.32,1.46c-0.23,0.47-0.58,0.84-1.04,1.12c-0.46,0.28-0.98,0.4-1.55,0.36
			s-1.21-0.23-1.92-0.58c-1.03-0.51-1.7-1.14-2.02-1.89C194.22,109.74,194.24,108.88,194.58,107.92z"/>
		<path class="st1" d="M217.97,112.66l3.01,1.49c0.68,0.34,1.17,0.65,1.47,0.92c0.41,0.38,0.69,0.83,0.86,1.36
			c0.16,0.53,0.2,1.1,0.12,1.71c-0.08,0.61-0.31,1.29-0.69,2.06c-0.33,0.67-0.7,1.21-1.11,1.61c-0.5,0.49-1.03,0.83-1.59,1.01
			c-0.42,0.14-0.92,0.16-1.48,0.08c-0.42-0.07-0.93-0.25-1.54-0.55l-3.1-1.53L217.97,112.66z M218.93,114.85l-2.67,5.4l1.23,0.61
			c0.46,0.23,0.8,0.37,1.03,0.42c0.3,0.07,0.58,0.06,0.83-0.01c0.25-0.07,0.53-0.26,0.82-0.57c0.29-0.31,0.59-0.78,0.91-1.41
			s0.5-1.14,0.55-1.54c0.06-0.39,0.03-0.73-0.08-1.02c-0.11-0.29-0.3-0.54-0.57-0.76c-0.2-0.17-0.64-0.42-1.31-0.75L218.93,114.85z"
			/>
		<path class="st1" d="M222.16,124.89l4.04-8.15l6.04,2.99l-0.68,1.38l-4.4-2.18l-0.9,1.81l4.09,2.03l-0.68,1.37l-4.09-2.03
			l-1.1,2.22l4.55,2.26l-0.68,1.37L222.16,124.89z"/>
	</g>
	<ellipse class="st2" cx="97.5" cy="145.33" rx="4.5" ry="5"/>
	<ellipse transform="matrix(0.982 -0.189 0.189 0.982 -25.2287 28.0531)" class="st2" cx="134.5" cy="146.33" rx="4.5" ry="5"/>
	<ellipse transform="matrix(0.5 -0.866 0.866 0.5 -57.4379 257.491)" class="st2" cx="194.27" cy="178.49" rx="3.6" ry="2.68"/>
	
		<ellipse transform="matrix(0.3991 -0.9169 0.9169 0.3991 -29.5663 241.5448)" class="st3" cx="169.5" cy="143.33" rx="5" ry="4.5"/>
	<ellipse transform="matrix(0.9801 -0.1987 0.1987 0.9801 -32.3611 25.1192)" class="st3" cx="109" cy="173.83" rx="4" ry="4.5"/>
	<path class="st2" d="M90,148.33c0,0-16-3-20,7c0,8,3,11,3,11s-1.5-10.5,1.5-11.5s4,0,3,5s-5,21,1,41c1-16,0-25,3-24s7,23,10,24
		c-4-22-5-27-4-32s2-11,4-11s0,15,0,15l2-5c0,0,4-7,4-10S94.5,146.83,90,148.33z"/>
	<path class="st3" d="M109,179.33C109,179.33,109,179.33,109,179.33c-0.01,0-11,2-11,9c4-3,7-3,7-3s0,7-1,8s-6,6-7,6s6-1,9-4
		s6,0,6,1s0,7,0,7s5-3,4-7s-4-13-2-14s5-4,6-7C113,178.33,113,179.33,109,179.33z"/>
	<path class="st2" d="M134,153.33c0,0-8-1-11,10s-3,11-3,11s6.5-9.5,6.5-11.5s4-1,4,3s-2,9-2,9l-6,8h5l1,20c0,0,0-20,5-20s5,7,5,7
		l1,12l2-19h2c0,0-5-18-4-19s4,4,4,4s5,6,7,6s-5-5-6-9S141.5,152.83,134,153.33z"/>
	<path class="st3" d="M170,150.33c-3.61,0.43-8.18,1.57-10,5c-1.02,1.94-0.24,2.84-1,6c-1.59,6.61-6.79,9.99-6,11
		c0.44,0.56,2.41-0.05,4-1c5.63-3.39,6.33-11.12,7-11c1.32,0.25-1,14-1,14c-2.4,14.18-5.53,25.84-5,26c0.75,0.23,6.26-23.22,13-23
		c1.57,0.05,2.68,1.37,4,3c6.67,8.21,4.67,19.99,5,20c0.32,0.01,4.54-10.82,0-22c-2.38-5.85-6.56-10.33-5-16c0.2-0.72,0.76-2.75,2-3
		c2.26-0.45,6.03,5.18,7,11c0.7,4.17-0.29,6.95,0,7c0.48,0.09,3.8-7.1,2-15c-0.42-1.84-1.21-5.1-4-8c-0.86-0.89-3.18-3.23-7-4
		C172.88,149.9,171.09,150.11,170,150.33z"/>
	<path class="st2" d="M185,177.33c0,0,2,5,5,5s6,0,6,0s4.5-1.5,5.5-2.5s-3,5-4,5s-1,6,0,8s5,5,5,5h-3c0,0-4-3-5-4s-4,0-4,0s0,7-1,7
		s-3-4-1-7s2-9,2-9S183.5,180.83,185,177.33z"/>
	<path class="st3" d="M202,179.33l11,8h2v-1h2v1h1v-2h2v2h4v3h-4l-0.5,5.5h-1v6l-1-6h-2v5l-1-5l-3,1v2h-3v2l-1-2l-1-3l2-3l-2-1
		c0,0-2-3,1-3s4-1,4-1L202,179.33z"/>
	<path class="st2" d="M264,175.33c0,0-3-26-22-23c-4,4-5,7-5,7s-2.5,12.5-8.5,14.5c-2,1-2,26-2,26h2l1-25c0,0,7-2,11-15
		c3,3,4,19,4,19l-1,6l-2,1v3h3l1,11l3-11h6l1,11l2-11h3v-3l-1-1c0,0,1-14-2-20C264.5,175.83,264,175.33,264,175.33z"/>
	<path class="st2" d="M245,144.33h-3.55c-0.15-0.11-0.28-0.24-0.45-0.33c-2.15-1.24-5.02-0.31-6.4,2.08
		c-1.38,2.39-0.76,5.34,1.4,6.58c2.15,1.24,5.02,0.31,6.4-2.08c0.8-1.38,0.91-2.93,0.46-4.25H245V144.33z"/>
	<path d="M45.47,128.33c10.77,0,19.53,8.76,19.53,19.53v53.47H25V148.8C25,137.51,34.18,128.33,45.47,128.33 M45.47,127.33
		L45.47,127.33c-11.86,0-21.47,9.61-21.47,21.47v53.53h42v-54.47C66,136.52,56.81,127.33,45.47,127.33L45.47,127.33z"/>
	<path d="M31.97,166.32l2.51,1.64l-4.76,7.3l-2.51-1.64L31.97,166.32 M31.68,164.94l-5.85,8.98l4.19,2.73l5.85-8.98L31.68,164.94
		L31.68,164.94z"/>
	<g>
		<path d="M28.98,230.64c0.24,0,0.43-0.05,0.58-0.16c0.15-0.11,0.3-0.22,0.45-0.33c0.24-0.22,0.48-0.43,0.71-0.65
			c0.24-0.22,0.46-0.44,0.68-0.68c1.23-1.3,2.38-2.64,3.46-4.02c1.07-1.38,2.08-2.82,3.04-4.32c0.63-1.04,1.23-2.07,1.82-3.1
			c0.58-1.03,1.13-2.09,1.62-3.2c0.24-0.54,0.46-1.08,0.65-1.62s0.38-1.09,0.55-1.66c0.17-0.48,0.29-0.96,0.36-1.44
			c0.06-0.49,0.12-0.98,0.16-1.48c0.02-0.22,0.02-0.43-0.02-0.65s-0.06-0.44-0.08-0.68c0-0.15-0.01-0.3-0.03-0.45s-0.02-0.3,0-0.46
			c0.04-0.41,0.28-0.67,0.7-0.78c0.32-0.09,0.61,0.03,0.86,0.36c0.06,0.11,0.12,0.22,0.17,0.33c0.05,0.11,0.09,0.22,0.11,0.32
			c0.11,0.39,0.16,0.76,0.16,1.1c0.02,1.51-0.21,3.03-0.7,4.54c-0.4,1.17-0.85,2.31-1.35,3.42s-1.05,2.21-1.68,3.29
			c-0.61,1-1.22,1.98-1.83,2.95c-0.62,0.97-1.27,1.94-1.96,2.89c-0.76,1.1-1.56,2.15-2.42,3.13c-0.86,0.98-1.76,1.94-2.71,2.87
			c-0.24,0.26-0.49,0.51-0.76,0.75c-0.27,0.24-0.55,0.48-0.83,0.71c-0.17,0.13-0.36,0.25-0.55,0.36c-0.2,0.11-0.4,0.2-0.62,0.26
			c-0.89,0.37-1.6,0.14-2.14-0.68c-0.35-0.48-0.6-0.98-0.75-1.51c-0.15-0.53-0.27-1.08-0.36-1.64c-0.15-1.08-0.2-2.15-0.15-3.2
			c0.05-1.05,0.13-2.1,0.24-3.16c0.2-2.03,0.49-4.03,0.89-5.99s0.78-3.93,1.15-5.92c0.13-0.56,0.23-1.14,0.29-1.72
			c0.02-0.07,0.03-0.13,0.02-0.2c-0.01-0.06-0.02-0.13-0.02-0.19c-0.17-0.11-0.32-0.13-0.44-0.08s-0.23,0.12-0.34,0.21
			c-0.43,0.32-0.87,0.64-1.3,0.96c-0.43,0.31-0.83,0.65-1.2,1.02c-0.97,0.95-1.81,1.99-2.5,3.1c-0.69,1.12-1.25,2.32-1.69,3.62
			c-0.17,0.45-0.3,0.91-0.39,1.38c-0.09,0.47-0.11,0.95-0.07,1.44c0,0.04,0,0.08,0.02,0.1c0.01,0.02,0.02,0.05,0.02,0.1
			c-0.02,0.48-0.23,0.76-0.62,0.84c-0.19,0.07-0.39,0.06-0.58-0.02c-0.19-0.08-0.35-0.21-0.45-0.41c-0.15-0.28-0.25-0.61-0.29-0.97
			c-0.06-0.82,0.05-1.62,0.36-2.4c0.19-0.54,0.39-1.08,0.6-1.61c0.21-0.53,0.44-1.04,0.7-1.54c0.69-1.32,1.5-2.55,2.43-3.7
			c0.93-1.15,2-2.18,3.21-3.12c0.3-0.24,0.64-0.48,1.01-0.71c0.17-0.11,0.35-0.21,0.54-0.29c0.18-0.09,0.37-0.15,0.57-0.19
			c0.69-0.22,1.28-0.18,1.75,0.1c0.48,0.28,0.81,0.77,1.01,1.46c0.09,0.35,0.13,0.7,0.13,1.05c0,0.36-0.02,0.72-0.07,1.09
			c-0.11,0.91-0.25,1.8-0.42,2.68c-0.17,0.88-0.37,1.76-0.58,2.64c-0.32,1.38-0.61,2.77-0.86,4.17c-0.25,1.4-0.47,2.8-0.67,4.2
			c-0.11,0.76-0.18,1.51-0.23,2.25c-0.04,0.75-0.05,1.5-0.03,2.26c0.02,0.43,0.06,0.86,0.11,1.28s0.16,0.84,0.31,1.25
			c0.04,0.09,0.08,0.16,0.11,0.23C28.89,230.51,28.93,230.58,28.98,230.64z"/>
		<path d="M52.31,223.89c0.24,0.15,0.3,0.36,0.2,0.62c-0.06,0.17-0.15,0.36-0.26,0.55c-0.09,0.11-0.17,0.21-0.26,0.31
			c-0.09,0.1-0.18,0.2-0.29,0.31c-0.8,0.8-1.61,1.58-2.42,2.34c-0.81,0.76-1.67,1.48-2.58,2.17c-0.3,0.24-0.61,0.45-0.93,0.65
			c-0.31,0.2-0.65,0.36-1.02,0.49c-0.82,0.32-1.56,0.33-2.22,0.02c-0.66-0.31-1.11-0.88-1.35-1.7c-0.06-0.26-0.11-0.52-0.15-0.78
			c-0.03-0.26-0.07-0.48-0.11-0.65c0.11-0.99,0.27-1.92,0.49-2.79s0.52-1.7,0.91-2.5c0.28-0.61,0.67-1.03,1.17-1.27
			c0.39-0.24,0.78-0.26,1.17-0.07c0.22,0.11,0.38,0.26,0.5,0.45c0.12,0.2,0.16,0.41,0.11,0.65c-0.02,0.19-0.06,0.39-0.11,0.58
			c-0.05,0.2-0.12,0.39-0.21,0.58c-0.24,0.61-0.48,1.21-0.71,1.8s-0.48,1.2-0.71,1.8c-0.11,0.28-0.19,0.56-0.26,0.83
			c-0.07,0.27-0.09,0.56-0.07,0.86c0.02,0.32,0.13,0.57,0.34,0.73c0.21,0.16,0.46,0.19,0.76,0.08c0.48-0.15,0.96-0.39,1.46-0.71
			c0.73-0.48,1.43-1,2.08-1.57c0.65-0.57,1.28-1.17,1.88-1.8c0.41-0.48,0.85-0.95,1.33-1.43c0.11-0.11,0.22-0.21,0.34-0.31
			c0.12-0.1,0.23-0.19,0.34-0.28C51.9,223.75,52.09,223.76,52.31,223.89z M44.97,220.13c-0.3-0.07-0.51-0.28-0.62-0.65l-0.1-0.39
			c0.09-0.48,0.2-0.93,0.34-1.36s0.35-0.83,0.63-1.2c0.17-0.24,0.39-0.38,0.65-0.42c0.26-0.04,0.5,0.01,0.71,0.16
			c0.22,0.11,0.36,0.28,0.44,0.52c0.08,0.24,0.06,0.49-0.05,0.75c-0.41,0.8-0.83,1.54-1.27,2.21
			C45.55,220.06,45.3,220.19,44.97,220.13z"/>
		<path d="M50.2,228.6c0.04-0.78,0.12-1.52,0.21-2.22s0.24-1.4,0.41-2.09c1.42-4.95,3.54-9.53,6.35-13.73
			c0.3-0.48,0.63-0.92,0.97-1.33c0.35-0.41,0.69-0.83,1.04-1.27c0.11-0.15,0.24-0.29,0.39-0.41c0.15-0.12,0.3-0.23,0.45-0.34
			c0.35-0.26,0.7-0.29,1.07-0.1c0.17,0.11,0.29,0.25,0.36,0.42c0.06,0.17,0.08,0.36,0.03,0.55c-0.06,0.28-0.14,0.56-0.23,0.84
			c-0.09,0.28-0.18,0.55-0.29,0.81c-0.3,0.69-0.61,1.38-0.92,2.06c-0.31,0.68-0.65,1.36-1.02,2.03c-0.69,1.25-1.39,2.5-2.09,3.75
			c-0.7,1.24-1.41,2.49-2.13,3.75c-0.17,0.3-0.37,0.58-0.58,0.84c-0.22,0.26-0.41,0.54-0.58,0.84c-0.17,0.2-0.29,0.43-0.36,0.71
			c-0.19,0.69-0.38,1.38-0.55,2.08c-0.17,0.69-0.31,1.4-0.42,2.11l-0.1,1.66c0,0.13,0.01,0.27,0.03,0.41s0.05,0.28,0.1,0.41
			c0.13,0.5,0.41,0.63,0.84,0.39c0.17-0.09,0.33-0.17,0.47-0.26c0.14-0.09,0.28-0.18,0.4-0.29c0.3-0.28,0.61-0.57,0.93-0.86
			c0.31-0.29,0.62-0.6,0.92-0.92c0.54-0.63,1.06-1.25,1.56-1.88c0.5-0.63,0.95-1.31,1.36-2.04c0.09-0.13,0.18-0.24,0.29-0.34
			s0.23-0.2,0.36-0.31c0.04-0.04,0.11-0.06,0.21-0.06s0.18,0.01,0.24,0.03c0.11,0.04,0.19,0.11,0.24,0.2
			c0.05,0.09,0.07,0.18,0.05,0.29s-0.04,0.21-0.06,0.31c-0.02,0.1-0.05,0.19-0.1,0.28c-0.09,0.19-0.22,0.4-0.39,0.62
			c-0.5,0.63-0.99,1.26-1.48,1.9c-0.49,0.64-0.99,1.27-1.51,1.9c-0.26,0.3-0.54,0.6-0.83,0.89s-0.59,0.58-0.89,0.86
			c-0.19,0.17-0.41,0.35-0.63,0.52c-0.23,0.17-0.46,0.33-0.7,0.46c-0.56,0.3-1.09,0.38-1.58,0.23c-0.49-0.15-0.89-0.51-1.2-1.07
			c-0.22-0.39-0.37-0.77-0.46-1.14c-0.07-0.26-0.11-0.52-0.13-0.78S50.22,228.79,50.2,228.6z M57.66,213.47
			c-0.17,0.35-0.36,0.68-0.55,1.01c-0.19,0.32-0.38,0.67-0.55,1.04c-0.02,0.02-0.07,0.11-0.15,0.28c-0.08,0.16-0.15,0.34-0.23,0.52
			c-0.08,0.18-0.14,0.35-0.2,0.5c-0.05,0.15-0.06,0.24-0.02,0.26c0.02,0.02,0.07-0.04,0.16-0.18c0.09-0.14,0.18-0.3,0.28-0.47
			c0.1-0.17,0.18-0.34,0.26-0.5c0.08-0.16,0.11-0.25,0.11-0.28c0.2-0.35,0.38-0.69,0.57-1.02c0.18-0.33,0.36-0.68,0.54-1.02
			c0.02-0.02,0.07-0.1,0.15-0.24c0.08-0.14,0.15-0.29,0.23-0.45s0.13-0.31,0.18-0.45c0.04-0.14,0.05-0.21,0.03-0.21
			s-0.07,0.06-0.15,0.18c-0.08,0.12-0.16,0.25-0.26,0.41c-0.1,0.15-0.18,0.29-0.26,0.42C57.73,213.38,57.68,213.45,57.66,213.47z"/>
		<path d="M58.02,228.6c0.04-0.78,0.12-1.52,0.21-2.22c0.1-0.7,0.24-1.4,0.41-2.09c1.42-4.95,3.54-9.53,6.35-13.73
			c0.3-0.48,0.63-0.92,0.97-1.33c0.35-0.41,0.69-0.83,1.04-1.27c0.11-0.15,0.24-0.29,0.39-0.41c0.15-0.12,0.3-0.23,0.46-0.34
			c0.35-0.26,0.7-0.29,1.07-0.1c0.17,0.11,0.29,0.25,0.36,0.42c0.06,0.17,0.08,0.36,0.03,0.55c-0.07,0.28-0.14,0.56-0.23,0.84
			c-0.09,0.28-0.18,0.55-0.29,0.81c-0.3,0.69-0.61,1.38-0.93,2.06s-0.65,1.36-1.02,2.03c-0.69,1.25-1.39,2.5-2.09,3.75
			c-0.7,1.24-1.41,2.49-2.13,3.75c-0.17,0.3-0.37,0.58-0.58,0.84c-0.22,0.26-0.41,0.54-0.58,0.84c-0.17,0.2-0.29,0.43-0.36,0.71
			c-0.2,0.69-0.38,1.38-0.55,2.08c-0.17,0.69-0.31,1.4-0.42,2.11l-0.1,1.66c0,0.13,0.01,0.27,0.03,0.41s0.05,0.28,0.1,0.41
			c0.13,0.5,0.41,0.63,0.84,0.39c0.17-0.09,0.33-0.17,0.47-0.26c0.14-0.09,0.28-0.18,0.41-0.29c0.3-0.28,0.61-0.57,0.92-0.86
			s0.62-0.6,0.93-0.92c0.54-0.63,1.06-1.25,1.56-1.88c0.5-0.63,0.95-1.31,1.36-2.04c0.09-0.13,0.18-0.24,0.29-0.34
			c0.11-0.1,0.23-0.2,0.36-0.31c0.04-0.04,0.11-0.06,0.21-0.06c0.1,0,0.18,0.01,0.24,0.03c0.11,0.04,0.19,0.11,0.24,0.2
			c0.05,0.09,0.07,0.18,0.05,0.29s-0.04,0.21-0.07,0.31c-0.02,0.1-0.05,0.19-0.1,0.28c-0.09,0.19-0.22,0.4-0.39,0.62
			c-0.5,0.63-0.99,1.26-1.48,1.9c-0.49,0.64-0.99,1.27-1.51,1.9c-0.26,0.3-0.54,0.6-0.83,0.89c-0.29,0.29-0.59,0.58-0.89,0.86
			c-0.2,0.17-0.41,0.35-0.63,0.52c-0.23,0.17-0.46,0.33-0.7,0.46c-0.56,0.3-1.09,0.38-1.58,0.23s-0.89-0.51-1.2-1.07
			c-0.22-0.39-0.37-0.77-0.46-1.14c-0.07-0.26-0.11-0.52-0.13-0.78C58.06,229.02,58.04,228.79,58.02,228.6z M65.48,213.47
			c-0.17,0.35-0.36,0.68-0.55,1.01c-0.19,0.32-0.38,0.67-0.55,1.04c-0.02,0.02-0.07,0.11-0.15,0.28c-0.08,0.16-0.15,0.34-0.23,0.52
			c-0.08,0.18-0.14,0.35-0.2,0.5c-0.05,0.15-0.06,0.24-0.02,0.26c0.02,0.02,0.08-0.04,0.16-0.18c0.09-0.14,0.18-0.3,0.28-0.47
			c0.1-0.17,0.18-0.34,0.26-0.5c0.08-0.16,0.11-0.25,0.11-0.28c0.2-0.35,0.38-0.69,0.57-1.02c0.18-0.33,0.36-0.68,0.54-1.02
			c0.02-0.02,0.07-0.1,0.15-0.24s0.15-0.29,0.23-0.45c0.08-0.16,0.14-0.31,0.18-0.45c0.04-0.14,0.05-0.21,0.03-0.21
			s-0.07,0.06-0.15,0.18c-0.08,0.12-0.16,0.25-0.26,0.41c-0.1,0.15-0.18,0.29-0.26,0.42C65.55,213.38,65.51,213.45,65.48,213.47z"/>
		<path d="M71.52,227.46c-0.15,0.17-0.28,0.32-0.39,0.44c-0.11,0.12-0.22,0.23-0.32,0.34c-0.37,0.35-0.74,0.7-1.1,1.05
			c-0.37,0.36-0.75,0.7-1.14,1.02c-0.17,0.15-0.36,0.28-0.55,0.37c-0.19,0.1-0.39,0.18-0.58,0.24c-0.41,0.13-0.78,0.11-1.12-0.05
			c-0.34-0.16-0.59-0.43-0.76-0.79c-0.09-0.17-0.16-0.36-0.21-0.57c-0.05-0.21-0.08-0.41-0.08-0.6c-0.04-0.69,0-1.33,0.13-1.92
			c0.15-0.78,0.39-1.51,0.71-2.21c0.32-0.69,0.71-1.35,1.17-1.98c0.54-0.71,1.17-1.29,1.88-1.72c0.54-0.37,1.11-0.55,1.72-0.55
			c1.02,0.04,1.68,0.54,1.98,1.49c0.15,0.54,0.18,1.08,0.1,1.62c-0.04,0.15-0.07,0.29-0.08,0.42s-0.04,0.27-0.08,0.42
			c0.37,0.24,0.61,0.52,0.71,0.86c0.11,0.33,0.17,0.7,0.2,1.09c0.02,0.45,0.09,0.93,0.19,1.43c0.07,0.32,0.27,0.45,0.62,0.39
			c0.17-0.04,0.34-0.09,0.5-0.13c0.16-0.04,0.32-0.12,0.47-0.23c0.26-0.17,0.52-0.36,0.78-0.55c0.26-0.19,0.5-0.41,0.71-0.65
			c0.28-0.26,0.53-0.54,0.75-0.84s0.44-0.59,0.68-0.88c0.17-0.2,0.35-0.38,0.54-0.57s0.36-0.36,0.54-0.54
			c0.04-0.04,0.12-0.07,0.23-0.07c0.11,0,0.18,0.02,0.23,0.07c0.06,0.04,0.12,0.11,0.16,0.19c0.04,0.09,0.05,0.16,0.03,0.23
			c-0.02,0.41-0.2,0.81-0.52,1.2c-0.43,0.56-0.89,1.12-1.38,1.66c-0.49,0.54-1.02,1.03-1.61,1.46c-0.24,0.2-0.5,0.38-0.78,0.55
			c-0.28,0.17-0.57,0.31-0.88,0.42c-0.63,0.26-1.19,0.29-1.69,0.1c-0.5-0.19-0.91-0.59-1.23-1.2c-0.09-0.15-0.17-0.3-0.24-0.46
			C71.72,227.9,71.63,227.7,71.52,227.46z M70.77,222.85c-0.61,0.3-1.09,0.68-1.46,1.14c-0.37,0.46-0.7,0.94-1.01,1.46
			c-0.3,0.56-0.57,1.15-0.8,1.75c-0.23,0.61-0.31,1.24-0.24,1.92c0.17,0.04,0.32,0.02,0.44-0.07c0.12-0.09,0.23-0.16,0.34-0.23
			c1.32-1.06,2.42-2.27,3.31-3.63c-0.11-0.17-0.17-0.36-0.18-0.55s-0.02-0.39-0.02-0.58c0-0.2-0.03-0.39-0.08-0.6
			C71.03,223.25,70.93,223.05,70.77,222.85z"/>
		<path d="M99.75,231.65c0.17,0,0.33,0,0.47,0.02c0.14,0.01,0.29,0.02,0.44,0.02c0.58,0.04,1.17,0.07,1.75,0.07s1.17,0.02,1.75,0.06
			c0.3,0.02,0.59,0.05,0.86,0.08s0.56,0.07,0.86,0.11c0.17,0.04,0.34,0.09,0.49,0.15c0.15,0.05,0.28,0.19,0.39,0.41
			c-0.09,0.04-0.16,0.09-0.23,0.13c-0.07,0.04-0.13,0.08-0.2,0.1c-0.3,0.04-0.61,0.04-0.91,0c-0.93-0.11-1.86-0.16-2.78-0.16
			s-1.84,0.01-2.77,0.03c-0.54,0.02-1.07,0.08-1.59,0.16c-0.52,0.09-1.04,0.21-1.56,0.36c-0.8,0.22-1.6,0.43-2.4,0.65
			c-0.8,0.22-1.61,0.43-2.43,0.65c-0.3,0.11-0.61,0.17-0.91,0.19c-0.24,0.02-0.44-0.03-0.6-0.15c-0.16-0.12-0.29-0.28-0.37-0.47
			c-0.06-0.17-0.08-0.37-0.03-0.58c0.04-0.22,0.15-0.39,0.32-0.52c0.11-0.11,0.23-0.19,0.36-0.24c0.13-0.05,0.25-0.11,0.36-0.18
			c0.15-0.04,0.3-0.09,0.45-0.15c0.15-0.05,0.31-0.11,0.49-0.18c-0.04-0.09-0.08-0.16-0.11-0.21c-0.03-0.05-0.07-0.1-0.11-0.15
			c-0.56-0.56-0.98-1.2-1.25-1.91c-0.27-0.71-0.45-1.46-0.54-2.24c-0.11-1.23-0.08-2.44,0.1-3.62c0.17-1.18,0.48-2.35,0.91-3.52
			c0.39-1.02,0.83-1.99,1.33-2.92c0.5-0.93,1.08-1.81,1.75-2.63c0.15-0.22,0.32-0.42,0.5-0.6s0.36-0.36,0.54-0.54
			c0.26-0.22,0.57-0.35,0.94-0.39c0.37-0.02,0.64,0.09,0.83,0.34c0.18,0.25,0.22,0.55,0.11,0.89c-0.06,0.17-0.15,0.34-0.26,0.49
			s-0.22,0.3-0.32,0.45c-0.69,0.91-1.31,1.84-1.85,2.79s-1.03,1.95-1.46,2.99c-0.91,2.06-1.27,4.19-1.07,6.39
			c0.04,0.24,0.08,0.48,0.11,0.71c0.03,0.24,0.08,0.48,0.15,0.71c0.13,0.43,0.33,0.85,0.62,1.27c0.39,0.65,0.97,0.95,1.75,0.91
			c0.71-0.02,1.4-0.13,2.06-0.32c0.66-0.19,1.3-0.46,1.93-0.81c0.22-0.11,0.42-0.23,0.62-0.37c0.2-0.14,0.39-0.29,0.58-0.44
			c2.49-1.97,4.55-4.19,6.18-6.67c1.63-2.48,2.89-5.23,3.78-8.26c0.2-0.69,0.34-1.38,0.42-2.08c0.09-0.69,0.11-1.38,0.07-2.08
			c-0.02-0.3-0.06-0.6-0.11-0.91c-0.05-0.3-0.15-0.61-0.28-0.91c-0.48-0.95-1.23-1.33-2.27-1.14c-0.41,0.09-0.87,0.24-1.36,0.46
			c-0.48,0.24-0.91,0.51-1.3,0.83s-0.77,0.65-1.14,1.02c-0.82,0.91-1.55,1.86-2.17,2.86c-0.63,1-1.14,2.08-1.53,3.25
			c-0.24,0.69-0.46,1.39-0.65,2.09s-0.35,1.42-0.45,2.16c0,0.15-0.01,0.26-0.03,0.32c-0.11,0.32-0.29,0.49-0.55,0.49
			c-0.28,0-0.48-0.16-0.58-0.49c-0.02-0.09-0.04-0.17-0.05-0.24c-0.01-0.08-0.02-0.17-0.02-0.28c0.02-0.54,0.04-1.08,0.05-1.62
			s0.04-1.09,0.08-1.66c0.06-0.76,0.23-1.48,0.49-2.17c0.26-0.69,0.56-1.38,0.91-2.08c0.8-1.58,1.86-3.01,3.18-4.28
			c0.93-0.89,1.97-1.59,3.12-2.11c0.52-0.24,1.05-0.41,1.61-0.52c0.55-0.11,1.11-0.11,1.67,0c0.69,0.09,1.32,0.41,1.88,0.97
			c0.82,0.89,1.29,1.97,1.39,3.25c0.07,0.84,0.05,1.68-0.05,2.5c-0.1,0.82-0.26,1.64-0.5,2.47c-0.58,2.16-1.39,4.2-2.42,6.1
			c-1.03,1.9-2.23,3.72-3.62,5.45c-0.78,0.97-1.62,1.87-2.53,2.69c-0.91,0.82-1.88,1.58-2.92,2.27l-0.39,0.29
			c0,0.04,0,0.08,0.02,0.1C99.75,231.57,99.75,231.6,99.75,231.65z"/>
		<path d="M117.57,226.42l-0.84,0.84l-2.14,2.24c-0.17,0.15-0.34,0.3-0.5,0.45s-0.33,0.29-0.5,0.42c-0.17,0.11-0.35,0.22-0.52,0.32
			c-0.17,0.11-0.36,0.2-0.55,0.26c-0.63,0.19-1.15,0.16-1.57-0.11s-0.69-0.73-0.79-1.38c-0.04-0.48-0.03-0.89,0.03-1.23
			c0.13-0.91,0.34-1.79,0.63-2.65c0.29-0.85,0.69-1.67,1.18-2.45c0.15-0.24,0.32-0.46,0.5-0.68c0.18-0.22,0.37-0.43,0.57-0.65
			c0.3-0.35,0.67-0.52,1.1-0.52c0.48-0.02,0.83,0.15,1.07,0.5c0.24,0.36,0.25,0.75,0.03,1.18c-0.06,0.13-0.14,0.26-0.23,0.39
			c-0.09,0.13-0.17,0.25-0.26,0.36c-0.48,0.69-0.9,1.39-1.28,2.11c-0.38,0.71-0.71,1.46-0.99,2.24c-0.06,0.17-0.13,0.35-0.2,0.52
			c-0.06,0.17-0.11,0.35-0.13,0.52c0.11,0.11,0.21,0.15,0.29,0.11c0.09-0.03,0.16-0.07,0.23-0.11c0.26-0.22,0.52-0.43,0.79-0.63
			c0.27-0.21,0.52-0.43,0.76-0.67c0.58-0.63,1.15-1.25,1.7-1.87c0.55-0.62,1.11-1.24,1.67-1.87c0.11-0.11,0.2-0.22,0.28-0.32
			c0.08-0.11,0.17-0.21,0.28-0.29c0.37-0.3,0.75-0.39,1.15-0.26s0.65,0.43,0.76,0.91c0.04,0.15,0.05,0.31,0.03,0.49
			c-0.02,0.17-0.04,0.35-0.07,0.52c-0.02,0.24-0.05,0.47-0.1,0.7s-0.08,0.46-0.1,0.7c0,0.24,0.01,0.48,0.03,0.71
			c0.02,0.24,0.08,0.48,0.16,0.71c0.11,0.35,0.3,0.58,0.57,0.7c0.27,0.12,0.57,0.11,0.89-0.02c0.17-0.04,0.33-0.11,0.47-0.19
			c0.14-0.09,0.29-0.17,0.44-0.26c0.74-0.52,1.4-1.11,1.98-1.79c0.24-0.26,0.46-0.52,0.67-0.79c0.21-0.27,0.42-0.54,0.63-0.79
			c0.11-0.11,0.24-0.26,0.41-0.47c0.16-0.21,0.3-0.34,0.41-0.41c0.22-0.15,0.44-0.14,0.68,0.03c0.22,0.2,0.28,0.41,0.19,0.65
			c-0.04,0.11-0.12,0.26-0.23,0.45c-0.11,0.19-0.19,0.34-0.26,0.42c-0.54,0.63-1.09,1.25-1.64,1.88c-0.55,0.63-1.17,1.19-1.87,1.69
			c-0.24,0.17-0.47,0.33-0.7,0.47c-0.23,0.14-0.46,0.27-0.7,0.37c-0.73,0.35-1.45,0.41-2.14,0.18c-0.69-0.23-1.24-0.7-1.66-1.41
			c-0.11-0.24-0.2-0.48-0.28-0.71s-0.16-0.48-0.24-0.71c-0.04-0.11-0.07-0.22-0.07-0.32C117.63,226.8,117.61,226.64,117.57,226.42z"
			/>
		<path d="M136.23,223.89c0.24,0.15,0.3,0.36,0.19,0.62c-0.07,0.17-0.15,0.36-0.26,0.55c-0.09,0.11-0.17,0.21-0.26,0.31
			c-0.09,0.1-0.18,0.2-0.29,0.31c-0.8,0.8-1.61,1.58-2.42,2.34c-0.81,0.76-1.67,1.48-2.58,2.17c-0.3,0.24-0.61,0.45-0.92,0.65
			c-0.31,0.2-0.66,0.36-1.02,0.49c-0.82,0.32-1.56,0.33-2.22,0.02s-1.11-0.88-1.35-1.7c-0.07-0.26-0.11-0.52-0.15-0.78
			c-0.03-0.26-0.07-0.48-0.11-0.65c0.11-0.99,0.27-1.92,0.49-2.79s0.52-1.7,0.91-2.5c0.28-0.61,0.67-1.03,1.17-1.27
			c0.39-0.24,0.78-0.26,1.17-0.07c0.22,0.11,0.38,0.26,0.5,0.45c0.12,0.2,0.16,0.41,0.11,0.65c-0.02,0.19-0.06,0.39-0.11,0.58
			c-0.05,0.2-0.13,0.39-0.21,0.58c-0.24,0.61-0.48,1.21-0.71,1.8c-0.24,0.59-0.48,1.2-0.71,1.8c-0.11,0.28-0.2,0.56-0.26,0.83
			c-0.06,0.27-0.09,0.56-0.06,0.86c0.02,0.32,0.13,0.57,0.34,0.73s0.46,0.19,0.76,0.08c0.47-0.15,0.96-0.39,1.46-0.71
			c0.74-0.48,1.43-1,2.08-1.57c0.65-0.57,1.28-1.17,1.88-1.8c0.41-0.48,0.85-0.95,1.33-1.43c0.11-0.11,0.22-0.21,0.34-0.31
			s0.23-0.19,0.34-0.28C135.82,223.75,136.01,223.76,136.23,223.89z M128.9,220.13c-0.3-0.07-0.51-0.28-0.62-0.65l-0.1-0.39
			c0.09-0.48,0.2-0.93,0.34-1.36c0.14-0.43,0.35-0.83,0.63-1.2c0.17-0.24,0.39-0.38,0.65-0.42c0.26-0.04,0.5,0.01,0.71,0.16
			c0.22,0.11,0.36,0.28,0.44,0.52c0.08,0.24,0.06,0.49-0.05,0.75c-0.41,0.8-0.83,1.54-1.27,2.21
			C129.47,220.06,129.22,220.19,128.9,220.13z"/>
		<path d="M136,226.91c-0.11,0.32-0.2,0.64-0.28,0.96c-0.08,0.31-0.08,0.64-0.02,0.99c0.15,0.63,0.54,0.91,1.17,0.84
			c0.67-0.11,1.24-0.32,1.72-0.65c0.3-0.22,0.61-0.43,0.91-0.65c0.3-0.22,0.61-0.45,0.91-0.71c0.58-0.5,1.16-1.01,1.72-1.53
			s1.14-1.03,1.72-1.53c0.17-0.17,0.36-0.32,0.57-0.45c0.21-0.13,0.41-0.25,0.6-0.36c0.04-0.04,0.12-0.05,0.23-0.03
			c0.11,0.02,0.18,0.05,0.23,0.1c0.11,0.06,0.16,0.15,0.16,0.24s-0.02,0.2-0.07,0.31c-0.02,0.04-0.04,0.09-0.06,0.13
			c-0.02,0.04-0.04,0.09-0.06,0.13c-0.11,0.11-0.2,0.22-0.28,0.33c-0.08,0.11-0.17,0.21-0.28,0.29c-0.76,0.69-1.52,1.38-2.29,2.06
			c-0.77,0.68-1.55,1.35-2.35,2c-0.28,0.24-0.58,0.45-0.91,0.65c-0.32,0.2-0.66,0.38-1.01,0.55c-0.5,0.26-1.04,0.44-1.62,0.55
			c-1.02,0.17-1.81-0.18-2.37-1.07c-0.17-0.26-0.31-0.54-0.42-0.83c-0.11-0.29-0.17-0.59-0.19-0.89c-0.09-1.38,0.13-2.62,0.65-3.7
			c0.52-1.08,1.33-2.04,2.43-2.89c0.37-0.28,0.8-0.45,1.3-0.52c0.39-0.07,0.75-0.03,1.07,0.1s0.58,0.33,0.78,0.58
			c0.19,0.26,0.31,0.56,0.36,0.89c0.04,0.34-0.01,0.69-0.16,1.05c-0.3,0.69-0.72,1.28-1.27,1.75s-1.18,0.83-1.91,1.07
			c-0.15,0.04-0.3,0.08-0.45,0.11S136.2,226.87,136,226.91z M136.65,225.38c0.37-0.09,0.63-0.17,0.79-0.24
			c0.16-0.08,0.35-0.2,0.57-0.37c0.17-0.15,0.33-0.32,0.49-0.5c0.15-0.18,0.26-0.39,0.32-0.63c0.02-0.04,0.01-0.2-0.03-0.45
			c-0.11,0.04-0.22,0.08-0.33,0.11c-0.11,0.03-0.19,0.08-0.26,0.15C137.58,223.91,137.06,224.56,136.65,225.38z"/>
		<path d="M147.33,215.78c-0.48,0.02-0.91,0.04-1.31,0.05s-0.79,0.04-1.18,0.08c-0.39,0.04-0.78,0.08-1.19,0.1
			c-0.4,0.02-0.79,0.05-1.18,0.1c-0.13,0-0.27,0-0.41,0s-0.28-0.01-0.41-0.03c-0.26-0.04-0.47-0.17-0.62-0.37
			c-0.15-0.21-0.23-0.43-0.23-0.67c0-0.22,0.07-0.42,0.19-0.6c0.13-0.18,0.31-0.32,0.55-0.41c0.26-0.06,0.53-0.1,0.81-0.1
			c0.84-0.04,1.68-0.08,2.52-0.11c0.83-0.03,1.67-0.07,2.51-0.11c0.17,0,0.36,0,0.55,0c0.19,0,0.4-0.01,0.62-0.03
			c0.11-0.17,0.21-0.33,0.31-0.47c0.1-0.14,0.19-0.3,0.28-0.47c0.47-0.8,0.97-1.58,1.49-2.34c0.52-0.76,1.07-1.49,1.65-2.21
			c0.11-0.17,0.23-0.33,0.36-0.45c0.13-0.13,0.26-0.27,0.39-0.42c0.19-0.2,0.38-0.34,0.55-0.42c0.15-0.09,0.3-0.14,0.45-0.15
			s0.29,0.04,0.42,0.15c0.37,0.22,0.5,0.51,0.39,0.88c-0.09,0.41-0.24,0.87-0.45,1.36c-0.3,0.63-0.61,1.26-0.92,1.88
			c-0.31,0.63-0.62,1.25-0.93,1.88c-0.04,0.11-0.09,0.22-0.15,0.33s-0.1,0.25-0.15,0.42c0.17,0,0.31,0.01,0.42,0.03
			c0.11,0.02,0.21,0.02,0.32,0c1.23,0,2.45-0.01,3.65-0.03c1.2-0.02,2.42-0.03,3.65-0.03c1.36-0.02,2.71-0.04,4.06-0.05
			c1.34-0.01,2.69-0.01,4.06,0.02c0.37,0,0.74,0.03,1.12,0.09c0.38,0.06,0.75,0.12,1.12,0.16c0.19,0.04,0.39,0.11,0.58,0.19
			c0.11,0.04,0.16,0.14,0.15,0.3s-0.07,0.26-0.18,0.3c-0.17,0.08-0.34,0.13-0.49,0.13c-0.54,0.02-1.08,0.04-1.62,0.05
			c-0.54,0.01-1.09,0.02-1.66,0.02c-0.76,0.02-1.53,0.03-2.3,0.03s-1.55,0.02-2.3,0.07c-1.58,0.07-3.15,0.15-4.72,0.24
			c-1.57,0.09-3.14,0.18-4.72,0.28c-0.37,0.02-0.74,0.04-1.12,0.07s-0.75,0.05-1.12,0.1c-0.3,0.54-0.6,1.07-0.89,1.57
			c-0.29,0.51-0.58,1.01-0.86,1.51c-0.28,0.48-0.56,0.95-0.83,1.41c-0.27,0.47-0.54,0.95-0.79,1.44c-0.11,0.17-0.2,0.34-0.28,0.5
			c-0.08,0.16-0.18,0.31-0.31,0.44c-0.3,0.33-0.53,0.68-0.67,1.06c-0.14,0.38-0.27,0.76-0.37,1.15c-0.15,0.52-0.29,1.03-0.42,1.54
			c-0.13,0.51-0.25,1.02-0.36,1.54c-0.06,0.37-0.09,0.73-0.08,1.07c0.01,0.35,0.07,0.7,0.18,1.07c0.11,0.3,0.31,0.42,0.62,0.36
			c0.35-0.04,0.66-0.14,0.94-0.29c0.28-0.15,0.55-0.32,0.81-0.52c0.89-0.63,1.7-1.33,2.45-2.09s1.47-1.58,2.16-2.45
			c0.11-0.13,0.22-0.27,0.34-0.42s0.24-0.29,0.37-0.42c0.22-0.24,0.43-0.27,0.65-0.1c0.22,0.2,0.28,0.4,0.2,0.62
			c-0.06,0.17-0.15,0.36-0.26,0.55c-1.67,2.12-3.52,4.04-5.55,5.74c-0.35,0.28-0.71,0.51-1.1,0.7c-0.39,0.18-0.8,0.3-1.23,0.34
			c-0.78,0.13-1.44-0.14-1.98-0.81c-0.2-0.26-0.34-0.55-0.44-0.86c-0.1-0.31-0.17-0.63-0.21-0.96c-0.06-0.61-0.06-1.2,0-1.79
			c0.07-0.58,0.16-1.18,0.29-1.78c0.2-0.87,0.44-1.71,0.75-2.55s0.62-1.67,0.94-2.51c0.28-0.69,0.57-1.38,0.88-2.06
			c0.3-0.68,0.61-1.37,0.91-2.06c0.04-0.11,0.09-0.21,0.13-0.31C147.18,216.12,147.24,215.97,147.33,215.78z"/>
		<path d="M158.46,226.42l-0.84,0.84l-2.14,2.24c-0.17,0.15-0.34,0.3-0.5,0.45s-0.33,0.29-0.5,0.42c-0.17,0.11-0.35,0.22-0.52,0.32
			c-0.17,0.11-0.36,0.2-0.55,0.26c-0.63,0.19-1.15,0.16-1.57-0.11s-0.69-0.73-0.8-1.38c-0.04-0.48-0.03-0.89,0.03-1.23
			c0.13-0.91,0.34-1.79,0.63-2.65c0.29-0.85,0.69-1.67,1.18-2.45c0.15-0.24,0.32-0.46,0.5-0.68c0.18-0.22,0.37-0.43,0.57-0.65
			c0.3-0.35,0.67-0.52,1.1-0.52c0.47-0.02,0.83,0.15,1.07,0.5c0.24,0.36,0.25,0.75,0.03,1.18c-0.07,0.13-0.14,0.26-0.23,0.39
			c-0.09,0.13-0.17,0.25-0.26,0.36c-0.48,0.69-0.9,1.39-1.28,2.11c-0.38,0.71-0.71,1.46-0.99,2.24c-0.06,0.17-0.13,0.35-0.19,0.52
			c-0.07,0.17-0.11,0.35-0.13,0.52c0.11,0.11,0.21,0.15,0.29,0.11s0.16-0.07,0.23-0.11c0.26-0.22,0.52-0.43,0.79-0.63
			c0.27-0.21,0.52-0.43,0.76-0.67c0.58-0.63,1.15-1.25,1.7-1.87c0.55-0.62,1.11-1.24,1.67-1.87c0.11-0.11,0.2-0.22,0.28-0.32
			c0.08-0.11,0.17-0.21,0.28-0.29c0.37-0.3,0.75-0.39,1.15-0.26s0.65,0.43,0.76,0.91c0.04,0.15,0.05,0.31,0.03,0.49
			s-0.04,0.35-0.06,0.52c-0.02,0.24-0.05,0.47-0.1,0.7c-0.04,0.23-0.08,0.46-0.1,0.7c0,0.24,0.01,0.48,0.03,0.71
			c0.02,0.24,0.08,0.48,0.16,0.71c0.11,0.35,0.3,0.58,0.57,0.7c0.27,0.12,0.57,0.11,0.89-0.02c0.17-0.04,0.33-0.11,0.47-0.19
			c0.14-0.09,0.29-0.17,0.44-0.26c0.74-0.52,1.4-1.11,1.98-1.79c0.24-0.26,0.46-0.52,0.67-0.79c0.21-0.27,0.42-0.54,0.63-0.79
			c0.11-0.11,0.24-0.26,0.41-0.47c0.16-0.21,0.3-0.34,0.41-0.41c0.22-0.15,0.44-0.14,0.68,0.03c0.22,0.2,0.28,0.41,0.2,0.65
			c-0.04,0.11-0.12,0.26-0.23,0.45s-0.19,0.34-0.26,0.42c-0.54,0.63-1.09,1.25-1.64,1.88c-0.55,0.63-1.17,1.19-1.87,1.69
			c-0.24,0.17-0.47,0.33-0.7,0.47c-0.23,0.14-0.46,0.27-0.7,0.37c-0.74,0.35-1.45,0.41-2.14,0.18c-0.69-0.23-1.24-0.7-1.66-1.41
			c-0.11-0.24-0.2-0.48-0.28-0.71c-0.08-0.24-0.16-0.48-0.24-0.71c-0.04-0.11-0.07-0.22-0.07-0.32
			C158.52,226.8,158.5,226.64,158.46,226.42z"/>
		<path d="M174.65,230.45c0.3,0.02,0.56-0.03,0.78-0.15c0.22-0.12,0.43-0.24,0.65-0.37c1.25-0.74,2.3-1.61,3.15-2.63
			c0.37-0.43,0.73-0.88,1.09-1.35c0.36-0.46,0.71-0.94,1.05-1.41c0.07-0.09,0.12-0.17,0.18-0.24c0.05-0.08,0.11-0.16,0.18-0.24
			c0.17-0.17,0.36-0.26,0.57-0.26c0.21,0,0.38,0.08,0.54,0.23c0.15,0.13,0.23,0.29,0.24,0.47c0.01,0.18-0.05,0.36-0.18,0.54
			c-0.04,0.04-0.08,0.09-0.1,0.13s-0.05,0.09-0.1,0.13c-0.48,0.48-0.94,0.95-1.4,1.43s-0.91,0.96-1.36,1.46
			c-0.56,0.58-1.14,1.15-1.72,1.69c-0.58,0.54-1.22,1.02-1.92,1.43c-0.17,0.11-0.34,0.21-0.5,0.29c-0.16,0.09-0.33,0.17-0.5,0.26
			c-0.97,0.37-1.73,0.1-2.27-0.81c-0.32-0.54-0.52-1.13-0.58-1.75c-0.02-0.13-0.03-0.26-0.03-0.41s-0.01-0.28-0.03-0.41
			c-0.11-0.06-0.19-0.07-0.26-0.02c-0.06,0.05-0.12,0.11-0.16,0.18c-0.19,0.24-0.38,0.47-0.57,0.68c-0.18,0.22-0.37,0.43-0.57,0.65
			c-0.63,0.76-1.35,1.37-2.17,1.85c-0.24,0.15-0.48,0.28-0.73,0.37c-0.25,0.1-0.51,0.17-0.79,0.21c-0.97,0.13-1.66-0.26-2.04-1.17
			c-0.22-0.52-0.31-1.05-0.29-1.59c0-0.28,0.02-0.56,0.05-0.83c0.03-0.27,0.07-0.54,0.11-0.79c0.52-2.08,1.47-3.96,2.86-5.65
			c0.19-0.22,0.39-0.42,0.6-0.62c0.21-0.19,0.43-0.39,0.67-0.58c0.41-0.35,0.9-0.58,1.46-0.71c1.21-0.3,2.15,0.07,2.82,1.1
			c0.09,0.13,0.16,0.27,0.23,0.41c0.06,0.14,0.15,0.3,0.26,0.47c0.06-0.11,0.12-0.21,0.16-0.29c0.04-0.09,0.09-0.16,0.13-0.23
			c0.69-1.58,1.45-3.12,2.27-4.61c0.82-1.49,1.71-2.95,2.66-4.38c0.5-0.78,1.01-1.56,1.54-2.34c0.53-0.78,1.11-1.53,1.74-2.24
			c0.15-0.17,0.3-0.35,0.45-0.54s0.31-0.36,0.49-0.54c0.11-0.11,0.23-0.21,0.36-0.29c0.13-0.09,0.27-0.15,0.42-0.19
			c0.35-0.13,0.65-0.09,0.93,0.11c0.27,0.21,0.38,0.49,0.34,0.86c0,0.17-0.03,0.33-0.1,0.49c-0.09,0.22-0.16,0.43-0.23,0.63
			c-0.06,0.21-0.15,0.41-0.26,0.6c-1.06,2.21-2.2,4.35-3.42,6.43c-1.22,2.08-2.57,4.1-4.04,6.07c-0.17,0.24-0.37,0.45-0.58,0.65
			c-0.22,0.19-0.41,0.4-0.58,0.62c-0.07,0.09-0.13,0.17-0.2,0.24c-0.06,0.08-0.12,0.16-0.16,0.24c-0.3,0.8-0.58,1.6-0.83,2.38
			c-0.25,0.79-0.43,1.61-0.54,2.45c-0.04,0.32-0.05,0.64-0.03,0.96C174.38,229.84,174.48,230.14,174.65,230.45z M167.19,230.48
			c0.11-0.02,0.22-0.04,0.34-0.05s0.23-0.04,0.34-0.08c0.26-0.15,0.52-0.31,0.78-0.47c0.26-0.16,0.51-0.34,0.75-0.54
			c0.52-0.43,1-0.89,1.43-1.38c0.43-0.49,0.84-1.01,1.23-1.57c0.09-0.11,0.16-0.22,0.23-0.32c0.06-0.11,0.14-0.24,0.23-0.39
			c-0.24-0.19-0.38-0.43-0.44-0.7c-0.05-0.27-0.1-0.54-0.15-0.79c-0.04-0.26-0.1-0.51-0.16-0.75c-0.07-0.24-0.21-0.45-0.42-0.65
			c-0.28,0.02-0.51,0.11-0.68,0.28c-0.17,0.16-0.35,0.33-0.52,0.5c-1.43,1.69-2.41,3.57-2.95,5.65c-0.04,0.19-0.08,0.39-0.1,0.6
			C167.07,230.02,167.1,230.24,167.19,230.48z"/>
		<path d="M224.21,219.32c-0.24,0.63-0.45,1.26-0.63,1.9c-0.18,0.64-0.36,1.27-0.54,1.9c-0.26,1.02-0.46,2.04-0.6,3.07
			c-0.14,1.03-0.2,2.06-0.18,3.1c0,0.17,0,0.35,0.02,0.52s0.02,0.35,0.02,0.52c0.02,0.3,0.1,0.56,0.23,0.78s0.35,0.38,0.65,0.49
			c0.26,0.09,0.38,0.23,0.36,0.44c-0.02,0.21-0.13,0.37-0.32,0.5c-0.35,0.2-0.7,0.25-1.07,0.16c-0.32-0.09-0.6-0.23-0.81-0.42
			c-0.22-0.19-0.4-0.44-0.55-0.75c-0.17-0.32-0.29-0.66-0.36-1.01c-0.07-0.35-0.12-0.7-0.16-1.07c-0.09-1.19-0.09-2.36,0-3.52
			c0.09-1.16,0.27-2.32,0.55-3.49c0.11-0.45,0.22-0.9,0.33-1.35c0.11-0.44,0.22-0.91,0.32-1.41c-0.06-0.02-0.13-0.04-0.19-0.07
			c-0.07-0.02-0.12-0.03-0.16-0.03c-1.3,0.11-2.59,0.23-3.88,0.36c-1.29,0.13-2.58,0.31-3.88,0.55c-0.19,0.04-0.39,0.08-0.6,0.11
			c-0.21,0.03-0.41,0.07-0.6,0.11c-0.24,0.04-0.43,0.13-0.57,0.24c-0.14,0.12-0.26,0.28-0.37,0.47c-0.76,1.17-1.47,2.34-2.14,3.5
			c-0.67,1.17-1.32,2.37-1.95,3.6c-0.22,0.41-0.43,0.82-0.63,1.23c-0.21,0.41-0.42,0.82-0.63,1.23c-0.09,0.2-0.22,0.4-0.39,0.62
			c-0.32,0.35-0.7,0.41-1.14,0.19c-0.19-0.09-0.34-0.22-0.44-0.39c-0.1-0.17-0.12-0.38-0.08-0.62c0.04-0.17,0.1-0.34,0.16-0.5
			c0.07-0.16,0.15-0.33,0.26-0.5c0.43-0.74,0.87-1.46,1.3-2.16s0.87-1.42,1.3-2.16c0.3-0.54,0.62-1.08,0.94-1.62
			c0.33-0.54,0.64-1.09,0.94-1.65c0.04-0.07,0.08-0.13,0.11-0.2c0.03-0.06,0.07-0.14,0.11-0.23c-0.11,0-0.21-0.01-0.29-0.02
			c-0.09-0.01-0.16,0-0.23,0.02c-0.24,0.06-0.48,0.14-0.73,0.23c-0.25,0.09-0.49,0.17-0.73,0.26c-0.11,0.04-0.22,0.08-0.34,0.1
			c-0.12,0.02-0.23,0.04-0.34,0.06c-0.52,0.11-0.89-0.08-1.1-0.55c-0.17-0.48-0.04-0.86,0.39-1.17c0.19-0.13,0.41-0.23,0.65-0.29
			c0.35-0.11,0.68-0.21,1.01-0.29c0.32-0.09,0.65-0.17,0.97-0.26c0.65-0.17,1.25-0.3,1.82-0.39c0.37-0.09,0.66-0.29,0.88-0.62
			l0.97-1.46c0.97-1.38,1.98-2.72,3.03-4.01c1.05-1.29,2.18-2.53,3.39-3.72c0.56-0.56,1.15-1.11,1.75-1.64
			c0.61-0.53,1.24-1.01,1.91-1.44c0.33-0.24,0.65-0.45,0.99-0.65c0.33-0.2,0.69-0.38,1.05-0.55c0.24-0.11,0.48-0.2,0.73-0.28
			c0.25-0.08,0.49-0.13,0.73-0.18c0.52-0.09,0.98,0.01,1.38,0.29c0.4,0.28,0.67,0.67,0.79,1.17c0.13,0.43,0.16,0.9,0.1,1.4
			c-0.04,0.35-0.1,0.69-0.16,1.02c-0.06,0.33-0.14,0.67-0.23,0.99c-0.32,1.13-0.67,2.23-1.02,3.33c-0.36,1.09-0.74,2.19-1.15,3.29
			c-0.06,0.17-0.12,0.35-0.18,0.54c-0.05,0.18-0.13,0.38-0.21,0.6c0.15,0.02,0.28,0.04,0.37,0.05c0.1,0.01,0.2,0.02,0.31,0.02h2.43
			c0.3,0,0.58,0.04,0.83,0.11c0.25,0.08,0.48,0.21,0.7,0.41c0.13,0.13,0.18,0.27,0.16,0.42c-0.02,0.15-0.12,0.25-0.29,0.29
			c-0.17,0.04-0.36,0.09-0.55,0.13c-0.2,0.04-0.38,0.06-0.55,0.06c-0.54,0.04-1.07,0.08-1.59,0.1c-0.52,0.02-1.05,0.05-1.59,0.1
			c-0.11,0-0.23,0-0.36,0.02C224.5,219.28,224.36,219.29,224.21,219.32z M225.54,206.79c-0.15,0.02-0.29,0.03-0.41,0.02
			c-0.12-0.01-0.23,0.01-0.34,0.05c-0.63,0.24-1.18,0.51-1.66,0.81c-0.61,0.37-1.18,0.77-1.72,1.2c-0.54,0.43-1.07,0.9-1.59,1.4
			c-1.25,1.21-2.41,2.49-3.47,3.84c-1.06,1.35-2.09,2.74-3.08,4.17c-0.07,0.13-0.13,0.29-0.2,0.49c1.51-0.19,3.01-0.38,4.48-0.57
			s2.96-0.36,4.48-0.54c0.04-0.11,0.09-0.22,0.15-0.34c0.05-0.12,0.1-0.24,0.15-0.37c0.13-0.39,0.26-0.78,0.41-1.17
			c0.14-0.39,0.29-0.78,0.44-1.17c0.35-0.97,0.69-1.94,1.02-2.89c0.33-0.95,0.68-1.92,1.02-2.89c0.06-0.22,0.12-0.43,0.18-0.65
			c0.05-0.22,0.1-0.43,0.15-0.65c0.02-0.11,0.03-0.22,0.02-0.32C225.54,207.1,225.54,206.96,225.54,206.79z"/>
		<path d="M232.03,229.31c-0.04,0.41-0.26,0.76-0.65,1.04c-0.24,0.17-0.48,0.22-0.73,0.13c-0.25-0.09-0.43-0.26-0.54-0.52
			c-0.19-0.41-0.14-0.8,0.16-1.17c0.04-0.07,0.1-0.13,0.16-0.18c0.06-0.05,0.13-0.11,0.19-0.18c0.2-0.28,0.46-0.37,0.81-0.26
			c0.35,0.13,0.54,0.38,0.58,0.75V229.31z"/>
		<path d="M259.26,214.97c0.45-0.82,0.88-1.62,1.27-2.4s0.75-1.58,1.07-2.4c0.17-0.39,0.31-0.78,0.41-1.18
			c0.1-0.4,0.16-0.82,0.18-1.25c-0.11-0.11-0.21-0.14-0.31-0.08c-0.1,0.05-0.18,0.1-0.24,0.15c-0.54,0.26-1.04,0.57-1.49,0.92
			c-0.45,0.36-0.9,0.73-1.33,1.12c-0.89,0.8-1.71,1.64-2.48,2.53c-0.77,0.89-1.5,1.82-2.19,2.79c-0.63,0.87-1.22,1.74-1.77,2.63
			c-0.55,0.89-1.08,1.82-1.57,2.79c-0.41,0.8-0.77,1.62-1.07,2.47s-0.54,1.72-0.71,2.63c-0.19,0.8-0.23,1.62-0.1,2.47
			c0.09,0.74,0.35,1.35,0.8,1.83c0.44,0.49,1.03,0.82,1.77,0.99c1.21,0.32,2.46,0.28,3.73-0.13c0.91-0.3,1.8-0.67,2.66-1.09
			s1.68-0.92,2.43-1.51c0.76-0.56,1.48-1.15,2.16-1.75c0.68-0.61,1.34-1.25,1.96-1.95c0.5-0.54,0.95-1.1,1.36-1.67
			c0.41-0.57,0.78-1.18,1.1-1.83c0.22-0.39,0.39-0.78,0.54-1.18c0.14-0.4,0.24-0.82,0.31-1.25c0.02-0.13,0.04-0.26,0.06-0.39
			s0.05-0.26,0.1-0.39c0.04-0.17,0.11-0.31,0.21-0.42c0.1-0.11,0.23-0.17,0.41-0.19c0.19-0.04,0.36-0.02,0.5,0.06
			c0.14,0.09,0.26,0.21,0.37,0.36c0.28,0.45,0.39,0.91,0.33,1.36c-0.04,0.28-0.1,0.56-0.16,0.83c-0.06,0.27-0.16,0.53-0.29,0.76
			c-0.24,0.41-0.46,0.82-0.68,1.22c-0.22,0.4-0.46,0.79-0.71,1.15c-1.17,1.6-2.46,3.04-3.88,4.32s-2.97,2.43-4.66,3.47
			c-1.17,0.71-2.43,1.29-3.8,1.72c-1.47,0.5-2.96,0.62-4.48,0.36c-1.99-0.32-3.33-1.45-4.02-3.38c-0.24-0.63-0.37-1.26-0.41-1.9
			c-0.03-0.64-0.01-1.28,0.08-1.93c0.3-2.03,0.87-3.93,1.69-5.68c0.93-1.92,1.99-3.75,3.18-5.47c1.19-1.72,2.53-3.34,4.02-4.85
			c1.17-1.17,2.43-2.16,3.8-2.99c0.24-0.15,0.49-0.29,0.75-0.41c0.26-0.12,0.53-0.24,0.81-0.37s0.61-0.23,0.97-0.29
			c0.69-0.15,1.22-0.06,1.59,0.28c0.37,0.34,0.52,0.86,0.46,1.57c-0.04,0.48-0.11,0.94-0.21,1.38c-0.1,0.44-0.23,0.88-0.41,1.31
			c-0.15,0.41-0.31,0.82-0.47,1.22c-0.16,0.4-0.34,0.78-0.54,1.15c-0.43,0.89-0.88,1.76-1.33,2.61c-0.46,0.86-0.91,1.71-1.36,2.58
			c-0.09,0.17-0.19,0.33-0.31,0.47s-0.24,0.28-0.37,0.41c-0.3,0.3-0.65,0.37-1.04,0.19c-0.43-0.19-0.64-0.52-0.62-0.97
			c0-0.8,0.22-1.55,0.65-2.24c0.15-0.22,0.33-0.36,0.55-0.44C258.73,215.01,258.97,214.97,259.26,214.97z"/>
		<path d="M273.4,229.31c-0.04,0.41-0.26,0.76-0.65,1.04c-0.24,0.17-0.48,0.22-0.73,0.13c-0.25-0.09-0.43-0.26-0.54-0.52
			c-0.19-0.41-0.14-0.8,0.16-1.17c0.04-0.07,0.1-0.13,0.16-0.18c0.06-0.05,0.13-0.11,0.19-0.18c0.2-0.28,0.46-0.37,0.81-0.26
			c0.35,0.13,0.54,0.38,0.58,0.75V229.31z"/>
	</g>
</g>
</svg>
